<svg fill="#ffffff" xmlns="http://www.w3.org/2000/svg"  viewBox="0 0 48 48" width="48px" height="48px">
  <path d="M 11.5 6 C 8.4802259 6 6 8.4802259 6 11.5 L 6 36.5 C 6 39.519774 8.4802259 42 11.5 42 L 36.5 42 C 39.519774 42 42 39.519774 42 36.5 L 42 11.5 C 42 8.4802259 39.519774 6 36.5 6 L 11.5 6 z M 11.5 9 L 36.5 9 C 37.898226 9 39 10.101774 39 11.5 L 39 36.5 C 39 37.898226 37.898226 39 36.5 39 L 30 39 L 30 29 L 33.625 29 C 34.129 29 34.555187 28.623047 34.617188 28.123047 L 34.992188 25.123047 C 35.028188 24.839047 34.938047 24.553891 34.748047 24.337891 C 34.559047 24.122891 34.287 24 34 24 L 30 24 L 30 20.5 C 30 19.397 30.897 18.5 32 18.5 L 34 18.5 C 34.552 18.5 35 18.053 35 17.5 L 35 14.125 C 35 13.607 34.604844 13.174906 34.089844 13.128906 C 34.030844 13.123906 32.619984 13 30.833984 13 C 26.426984 13 24 15.616187 24 20.367188 L 24 24 L 20 24 C 19.448 24 19 24.447 19 25 L 19 28 C 19 28.553 19.448 29 20 29 L 24 29 L 24 39 L 11.5 39 C 10.101774 39 9 37.898226 9 36.5 L 9 11.5 C 9 10.101774 10.101774 9 11.5 9 z"/>
</svg>