<svg width="1440" height="502" viewBox="0 0 1440 502" fill="none" xmlns="http://www.w3.org/2000/svg">
<path fill-rule="evenodd" clip-rule="evenodd" d="M-4.49997 62.5C-0.293312 -35.5083 -5 -7.00003 16.5 -7.00003C87 -7.00003 95.5001 -7.00003 165 -7.00003C271 -7.00003 194.5 -6.99997 339.5 -6.99999C488.5 -7.00002 478 -7.00003 628.5 -7.00002C722 -7.00001 726.595 -7.00001 863 -7.00001C948 -7.00001 953.5 -7.00001 1049.5 -7.00001C1238 -7.00001 1325.5 -7 1439 -7C1439 91 1456.04 150.214 1382.27 250.115C1310.95 346.699 1199.77 420.434 1077.36 457.675C964.883 491.897 844.029 441.995 725.57 449.916C626.283 456.555 535.441 506.401 436.092 500.553C329.727 494.292 220.779 471.907 135.051 415.158C48.5207 357.877 -7.5 287.5 -7.5 179.5C-7.5 86.5 -8.72476 160.931 -4.49997 62.5Z" fill="url(#paint0_radial_206_617)"/>
<path fill-rule="evenodd" clip-rule="evenodd" d="M-4.49997 62.5C-0.293312 -35.5083 -5 -7.00003 16.5 -7.00003C87 -7.00003 95.5001 -7.00003 165 -7.00003C271 -7.00003 194.5 -6.99997 339.5 -6.99999C488.5 -7.00002 478 -7.00003 628.5 -7.00002C722 -7.00001 726.595 -7.00001 863 -7.00001C948 -7.00001 953.5 -7.00001 1049.5 -7.00001C1238 -7.00001 1325.5 -7 1439 -7C1439 91 1456.04 150.214 1382.27 250.115C1310.95 346.699 1199.77 420.434 1077.36 457.675C964.883 491.897 844.029 441.995 725.57 449.916C626.283 456.555 535.441 506.401 436.092 500.553C329.727 494.292 220.779 471.907 135.051 415.158C48.5207 357.877 -7.5 287.5 -7.5 179.5C-7.5 86.5 -8.72476 160.931 -4.49997 62.5Z" fill="url(#paint1_linear_206_617)"/>
<defs>
<radialGradient id="paint0_radial_206_617" cx="0" cy="0" r="1" gradientUnits="userSpaceOnUse" gradientTransform="translate(705 59) rotate(12.8617) scale(1082.66 382.638)">
<stop stop-color="#0176FF"/>
<stop offset="1" stop-color="#6BBCFC" stop-opacity="0"/>
</radialGradient>
<linearGradient id="paint1_linear_206_617" x1="1050" y1="-116" x2="137" y2="587.501" gradientUnits="userSpaceOnUse">
<stop stop-color="#0075FF"/>
<stop offset="0.327691" stop-color="#6ABCFC" stop-opacity="0.8"/>
<stop offset="0.578214" stop-color="#4D9FFF"/>
<stop offset="1" stop-color="#0075FF" stop-opacity="0.82"/>
</linearGradient>
</defs>
</svg>
