<svg xmlns="http://www.w3.org/2000/svg" width="1440" height="502" fill="none" viewBox="0 0 1440 502">
  <path fill="url(#a)" fill-rule="evenodd" d="M-160.161-92.848c4.206-98.008 79.469-179.812 136.245-263.675 52.95-78.212 130.371-136.915 186.636-213.248 80.521-109.239 72.889-317.285 217.64-335.22 152.363-18.877 210.425 200.67 346.235 265.357 92.691 44.149 224.458-12.68 306.775 45.678 82.29 58.333 54.21 183.669 120.03 256.882 90.71 100.9 282.81 121.913 330.48 244.226 44.08 113.086-27.84 243.062-101.61 342.963-71.32 96.584-182.5 170.319-304.91 207.56-112.476 34.222-233.331-15.68-351.79-7.759-99.287 6.639-190.129 56.485-289.478 50.637-106.365-6.261-215.313-28.646-301.041-85.395C48.521 357.877 2.704 266.269-46.978 180.777-97.752 93.404-164.386 5.583-160.16-92.848Z" clip-rule="evenodd"/>
  <defs>
    <linearGradient id="a" x1="-160.353" x2="1265.66" y1="-202.554" y2="598.116" gradientUnits="userSpaceOnUse">
      <stop stop-color="#0075FF"/>
      <stop offset="1" stop-color="#619FCC" stop-opacity=".7"/>
    </linearGradient>
  </defs>
</svg>