<svg width="428" height="659" viewBox="0 0 428 659" fill="none" xmlns="http://www.w3.org/2000/svg">
<path fill-rule="evenodd" clip-rule="evenodd" d="M-7 447.5C-7 442.5 -6.99998 437.5 -6.99998 437.5C-6.99998 437.5 -9.4807 174.155 -7 194L-6.99998 130L-6.99998 14L-2.99999 -9C-2.99999 -9 152 -9 237 -8.99999C366 -8.99999 681 -8.99998 681 -8.99998C681 -8.99998 761 421 611.5 533C529.467 594.456 273.5 658.5 180.5 658.5C62.9306 658.5 -7.00003 621.5 -7.00003 621.5L-6.99999 587.5L-7 559.5L-7 508.5L-7 447.5Z" fill="url(#paint0_linear_1288_1614)"/>
<defs>
<linearGradient id="paint0_linear_1288_1614" x1="-1028" y1="-39.9161" x2="398.013" y2="760.754" gradientUnits="userSpaceOnUse">
<stop stop-color="#0075FF"/>
<stop offset="1" stop-color="#619FCC" stop-opacity="0.63"/>
</linearGradient>
</defs>
</svg>
