<svg width="1440" height="502" viewBox="0 0 1440 502" fill="none" xmlns="http://www.w3.org/2000/svg">
<path fill-rule="evenodd" clip-rule="evenodd" d="M-160.161 -92.8477C-155.955 -190.856 -80.6921 -272.66 -23.9162 -356.523C29.0343 -434.735 106.455 -493.438 162.72 -569.771C243.241 -679.01 235.609 -887.056 380.36 -904.991C532.723 -923.868 590.785 -704.321 726.595 -639.634C819.286 -595.485 951.053 -652.314 1033.37 -593.957C1115.66 -535.623 1087.58 -410.287 1153.4 -337.075C1244.11 -236.174 1436.21 -215.161 1483.88 -92.8476C1527.96 20.238 1456.04 150.214 1382.27 250.115C1310.95 346.699 1199.77 420.433 1077.36 457.675C964.884 491.897 844.029 441.995 725.57 449.916C626.283 456.555 535.441 506.401 436.092 500.553C329.727 494.292 220.779 471.907 135.051 415.157C48.5206 357.877 2.70366 266.269 -46.9779 180.777C-97.7522 93.4036 -164.386 5.58313 -160.161 -92.8477Z" fill="url(#paint0_linear_256_652)"/>
<defs>
<linearGradient id="paint0_linear_256_652" x1="-160.353" y1="-202.554" x2="1265.66" y2="598.116" gradientUnits="userSpaceOnUse">
<stop stop-color="#09203F"/>
<stop offset="1" stop-color="#537895" stop-opacity="0.63"/>
</linearGradient>
</defs>
</svg>
