<?xml version="1.0" standalone="no"?>
<!DOCTYPE svg PUBLIC "-//W3C//DTD SVG 20010904//EN"
 "http://www.w3.org/TR/2001/REC-SVG-20010904/DTD/svg10.dtd">
<svg version="1.0" xmlns="http://www.w3.org/2000/svg"
 width="874.000000pt" height="874.000000pt" viewBox="0 0 874.000000 874.000000"
 preserveAspectRatio="xMidYMid meet">
<metadata>
Created by potrace 1.14, written by Peter Selinger 2001-2017
</metadata>
<g transform="translate(0.000000,874.000000) scale(0.100000,-0.100000)"
fill="#000000" stroke="none">
<path d="M6148 8729 c-58 -9 -18 14 -920 -518 -15 -9 -96 -56 -180 -105 -84
-49 -164 -97 -178 -106 -14 -10 -45 -28 -70 -42 -153 -86 -961 -566 -1140
-677 -69 -43 -182 -113 -253 -157 -70 -43 -202 -126 -295 -183 -92 -58 -399
-248 -682 -424 -748 -463 -774 -484 -828 -636 -15 -42 -17 -257 -19 -2639 -3
-2287 -2 -2596 12 -2621 51 -100 303 -288 542 -405 190 -93 296 -122 380 -102
33 7 84 36 79 44 -3 4 3 8 13 9 25 2 147 82 143 95 -1 5 3 6 9 2 7 -4 17 0 23
8 6 8 16 16 21 17 6 2 9 7 7 13 -1 5 2 7 7 4 17 -11 42 6 36 23 -5 12 -3 13 6
4 9 -9 19 -6 45 10 19 12 32 28 29 35 -2 6 0 12 5 12 6 0 10 -5 10 -10 0 -6
21 4 48 22 26 18 51 33 55 33 4 0 11 5 15 11 4 6 17 14 30 18 12 4 20 12 17
17 -4 5 3 9 14 9 11 0 26 7 35 15 8 8 19 15 25 15 6 0 11 4 11 9 0 6 -9 8 -20
6 -11 -2 -18 0 -15 5 3 4 13 7 23 5 9 -1 23 3 31 9 12 9 13 8 6 -4 -8 -12 -5
-12 15 1 15 10 24 25 22 35 -2 15 -1 16 6 5 7 -10 14 -11 31 -2 12 7 19 17 15
23 -4 7 -9 6 -15 -3 -6 -10 -8 -7 -6 8 1 20 3 21 18 7 14 -13 20 -13 38 -2 12
7 21 16 21 21 0 4 5 5 12 1 8 -5 9 -2 4 11 -5 15 -4 16 9 5 14 -11 19 -7 16
13 0 4 3 6 8 5 10 -3 124 63 129 74 2 5 8 6 13 2 5 -3 12 2 15 10 3 9 12 16
20 16 8 0 14 5 14 12 0 6 3 9 6 5 7 -7 28 12 37 33 3 9 6 10 6 3 1 -7 6 -13
12 -13 6 0 9 6 6 13 -3 9 3 13 17 13 11 -1 20 4 19 11 -2 7 4 10 12 7 8 -4 17
1 21 10 3 9 10 13 15 10 12 -7 11 3 0 25 -7 13 -6 18 4 18 8 0 12 -4 9 -9 -12
-19 8 -27 31 -12 14 9 22 20 19 25 -3 5 1 7 8 4 22 -8 51 22 46 48 -3 14 0 24
7 24 7 0 10 -10 7 -25 -4 -22 -3 -23 17 -13 12 7 19 16 16 22 -4 5 -3 9 2 8
21 -4 43 2 43 12 0 5 -4 8 -8 5 -5 -3 -9 1 -9 9 0 10 4 12 13 5 12 -11 64 6
64 21 0 4 9 11 20 14 11 4 17 11 14 17 -4 7 -2 8 5 4 7 -5 27 4 46 19 19 14
35 23 35 19 0 -3 9 4 21 17 11 13 18 18 14 12 -3 -7 21 4 54 24 32 21 57 41
55 45 -3 5 4 8 15 8 12 0 21 5 21 11 0 5 4 8 9 5 14 -9 21 20 8 33 -9 9 -8 11
6 6 9 -4 17 -11 17 -16 0 -6 9 -5 20 1 11 6 20 18 20 28 0 15 2 15 10 2 9 -14
11 -13 14 9 0 5 5 13 10 18 5 5 6 3 2 -4 -4 -7 -2 -13 4 -13 6 0 15 10 20 23
5 12 9 16 9 9 1 -7 6 -10 11 -7 6 4 7 11 4 17 -4 7 -2 8 4 4 12 -7 31 2 104
52 26 17 52 32 58 32 5 0 18 7 27 15 10 8 21 15 26 15 15 0 43 35 36 45 -5 7
0 11 11 11 10 0 16 -4 13 -10 -3 -5 8 -1 26 10 17 10 31 22 31 26 0 4 7 8 15
8 8 0 15 5 15 11 0 5 4 8 9 5 5 -3 14 1 21 9 6 7 19 11 27 8 10 -4 14 -2 10 4
-7 10 19 28 36 25 4 -1 7 2 7 7 0 10 39 26 55 23 6 -1 -1 7 -14 18 -26 22 -21
27 8 8 15 -9 22 -8 34 4 9 9 13 19 9 23 -4 5 -1 5 7 0 8 -4 16 -2 21 5 4 6 19
13 33 13 18 2 23 5 16 14 -7 8 -3 11 15 9 17 -2 23 1 19 10 -3 9 2 14 16 14
12 0 24 6 27 14 3 8 12 12 20 9 13 -5 19 8 15 31 -1 5 6 3 15 -5 16 -12 17
-12 11 4 -6 15 -4 16 16 6 19 -11 20 -10 9 3 -10 13 -9 15 10 14 13 -1 33 9
46 23 13 15 21 20 17 14 -4 -8 -1 -11 9 -7 9 3 15 9 14 12 -2 20 3 25 12 12 8
-13 10 -12 10 3 0 9 3 16 8 16 4 -1 16 -1 27 0 17 1 18 3 5 11 -13 8 -12 10 4
10 10 0 25 8 33 18 8 9 12 11 8 5 -4 -9 -1 -11 9 -7 9 3 13 10 10 15 -3 5 2 9
10 9 9 0 16 5 16 11 0 5 3 8 8 5 13 -8 44 22 37 36 -6 10 -5 10 5 1 14 -13 43
-6 34 8 -3 5 4 9 15 9 12 0 21 5 21 11 0 5 4 8 9 5 5 -3 12 1 15 9 3 8 9 15
13 14 21 -4 33 2 27 13 -4 6 -3 8 4 4 6 -3 17 1 25 9 9 8 20 15 26 15 6 0 11
5 11 11 0 5 5 7 10 4 6 -3 13 1 16 9 3 9 15 16 25 16 11 0 22 7 25 15 4 8 10
12 15 9 5 -3 9 0 9 6 0 6 5 8 10 5 6 -3 13 1 16 9 3 9 12 16 18 16 7 0 21 8
32 18 10 10 23 19 27 19 16 2 117 67 117 76 0 4 4 6 8 3 5 -3 18 4 30 14 12
11 28 20 37 20 9 0 18 7 21 15 4 8 12 15 19 15 8 0 21 7 29 16 9 8 16 13 16 9
0 -3 6 -1 13 5 25 21 88 60 97 60 6 0 10 5 10 10 0 6 5 10 11 10 6 0 30 14 54
30 24 17 48 30 54 30 6 0 11 3 11 8 0 4 9 12 20 17 11 6 88 53 171 105 84 52
164 102 178 110 96 55 170 129 212 212 63 125 59 -75 59 2738 l0 2565 -21 43
c-17 34 -34 49 -83 75 -132 68 -302 129 -556 197 -85 24 -191 52 -235 64 -58
16 -93 20 -127 15z m-584 -6595 c3 -8 2 -12 -4 -9 -6 3 -10 10 -10 16 0 14 7
11 14 -7z m-476 -119 c-3 -3 -9 2 -12 12 -6 14 -5 15 5 6 7 -7 10 -15 7 -18z
m297 -84 c3 -5 2 -12 -3 -15 -5 -3 -9 1 -9 9 0 17 3 19 12 6z m-39 -27 c1 -9
0 -13 -4 -10 -3 4 -7 14 -8 22 -1 9 0 13 4 10 3 -4 7 -14 8 -22z m-581 -12
c-3 -3 -11 0 -18 7 -9 10 -8 11 6 5 10 -3 15 -9 12 -12z m461 3 c-1 -8 -5 -17
-8 -21 -5 -4 -4 16 1 34 3 9 9 -1 7 -13z m84 -9 c0 -3 -4 -8 -10 -11 -5 -3
-10 -1 -10 4 0 6 5 11 10 11 6 0 10 -2 10 -4z m-204 -51 c-1 -8 -5 -17 -8 -21
-5 -4 -4 16 1 34 3 9 9 -1 7 -13z m-72 -33 c3 -5 -1 -9 -9 -9 -8 0 -12 4 -9 9
3 4 7 8 9 8 2 0 6 -4 9 -8z m110 -28 c3 -8 2 -12 -4 -9 -6 3 -10 10 -10 16 0
14 7 11 14 -7z m-279 -3 c3 -5 2 -12 -3 -15 -5 -3 -9 1 -9 9 0 17 3 19 12 6z
m-15 -56 c0 -2 -9 -3 -19 -2 -11 0 -18 5 -15 9 4 6 34 0 34 -7z m64 -13 c3 -5
-1 -9 -9 -9 -8 0 -12 4 -9 9 3 4 7 8 9 8 2 0 6 -4 9 -8z m-204 -18 c0 -8 -19
-13 -24 -6 -3 5 1 9 9 9 8 0 15 -2 15 -3z m257 -14 c1 -11 -2 -22 -6 -24 -6
-4 -7 26 -2 42 3 8 7 -1 8 -18z m-367 -5 c-7 -8 -17 -15 -23 -15 -6 0 -2 7 9
15 25 19 30 19 14 0z m175 -5 c-3 -5 -12 -10 -18 -10 -7 0 -6 4 3 10 19 12 23
12 15 0z m145 4 c0 -8 -19 -13 -24 -6 -3 5 1 9 9 9 8 0 15 -2 15 -3z m-215
-24 c3 -5 1 -10 -4 -10 -6 0 -11 5 -11 10 0 6 2 10 4 10 3 0 8 -4 11 -10z
m-300 -9 c3 -5 2 -12 -3 -15 -5 -3 -9 1 -9 9 0 17 3 19 12 6z m-340 -11 c3 -5
1 -10 -4 -10 -6 0 -11 5 -11 10 0 6 2 10 4 10 3 0 8 -4 11 -10z m522 -25 c0
-8 -4 -12 -9 -9 -5 3 -6 10 -3 15 9 13 12 11 12 -6z m298 -3 c-3 -3 -11 0 -18
7 -9 10 -8 11 6 5 10 -3 15 -9 12 -12z m-175 -12 c0 -5 -5 -10 -11 -10 -5 0
-7 5 -4 10 3 6 8 10 11 10 2 0 4 -4 4 -10z m-240 -25 c0 -2 -9 -3 -19 -2 -11
0 -18 5 -15 9 4 6 34 0 34 -7z m40 5 c0 -5 -5 -10 -11 -10 -5 0 -7 5 -4 10 3
6 8 10 11 10 2 0 4 -4 4 -10z m291 -13 c-10 -9 -11 -8 -5 6 3 10 9 15 12 12 3
-3 0 -11 -7 -18z m-371 -27 c0 -5 -2 -10 -4 -10 -3 0 -8 5 -11 10 -3 6 -1 10
4 10 6 0 11 -4 11 -10z m253 -15 c-7 -21 -12 -19 -10 4 0 11 5 18 9 15 4 -3 5
-11 1 -19z m43 9 c-1 -8 -6 -17 -12 -21 -5 -4 -6 -4 -2 1 4 5 3 14 -2 21 -7 8
-5 12 4 12 8 0 13 -6 12 -13z m-182 -12 c3 -5 -1 -9 -9 -9 -8 0 -12 4 -9 9 3
4 7 8 9 8 2 0 6 -4 9 -8z m65 -15 c8 -10 7 -14 -2 -14 -8 0 -14 6 -14 14 0 7
1 13 2 13 2 0 8 -6 14 -13z m40 0 c8 -10 7 -14 -2 -14 -8 0 -14 6 -14 14 0 7
1 13 2 13 2 0 8 -6 14 -13z m-279 -26 c0 -6 -4 -12 -8 -15 -5 -3 -9 1 -9 9 0
8 4 15 9 15 4 0 8 -4 8 -9z m64 1 c3 -5 -1 -9 -9 -9 -8 0 -12 4 -9 9 3 4 7 8
9 8 2 0 6 -4 9 -8z m67 -15 c-10 -9 -11 -8 -5 6 3 10 9 15 12 12 3 -3 0 -11
-7 -18z m46 6 c0 -9 -4 -10 -14 -2 -7 6 -13 12 -13 14 0 1 6 2 13 2 8 0 14 -6
14 -14z m-362 -2 c3 -5 2 -12 -3 -15 -5 -3 -9 1 -9 9 0 17 3 19 12 6z m125 -5
c0 -3 -4 -8 -10 -11 -5 -3 -10 -1 -10 4 0 6 5 11 10 11 6 0 10 -2 10 -4z m124
-25 c-7 -8 -54 -9 -49 -1 2 3 15 6 29 6 14 0 23 -2 20 -5z m91 0 c-9 -8 -36
-10 -30 -2 2 4 11 8 20 8 8 0 13 -3 10 -6z m8 -26 c-3 -9 -8 -14 -10 -11 -3 3
-2 9 2 15 9 16 15 13 8 -4z m-28 -4 c3 -5 2 -12 -3 -15 -5 -3 -9 1 -9 9 0 17
3 19 12 6z m-75 -10 c0 -6 -4 -12 -8 -15 -5 -3 -9 1 -9 9 0 8 4 15 9 15 4 0 8
-4 8 -9z m-63 -16 c0 -8 -10 -23 -21 -32 -21 -18 -21 -18 -2 5 11 12 16 22 12
22 -4 0 -4 5 -1 10 9 14 12 13 12 -5z m-261 -10 c-1 -8 -5 -17 -8 -21 -5 -4
-4 16 1 34 3 9 9 -1 7 -13z m341 -3 c-17 -18 -51 -27 -41 -10 3 5 9 6 14 3 4
-3 13 2 20 10 7 8 15 15 18 15 3 0 -2 -8 -11 -18z m-197 -8 c0 -8 -19 -13 -24
-6 -3 5 1 9 9 9 8 0 15 -2 15 -3z m-606 -50 c3 -8 2 -12 -4 -9 -6 3 -10 10
-10 16 0 14 7 11 14 -7z m623 1 c0 -8 -4 -12 -9 -9 -5 3 -6 10 -3 15 9 13 12
11 12 -6z m-237 -9 c0 -3 -4 -8 -10 -11 -5 -3 -10 -1 -10 4 0 6 5 11 10 11 6
0 10 -2 10 -4z m140 -4 c0 -5 -7 -9 -15 -9 -8 0 -12 4 -9 9 3 4 9 8 15 8 5 0
9 -4 9 -8z m58 -27 c-3 -3 -9 2 -12 12 -6 14 -5 15 5 6 7 -7 10 -15 7 -18z
m83 8 c13 -16 12 -17 -3 -4 -17 13 -22 21 -14 21 2 0 10 -8 17 -17z m-103 -14
c9 -12 9 -16 -1 -16 -7 0 -14 9 -14 20 -1 11 -1 18 0 16 2 -2 8 -11 15 -20z
m-37 -6 c13 -16 12 -17 -3 -4 -17 13 -22 21 -14 21 2 0 10 -8 17 -17z m-265
-5 c3 -4 -1 -5 -10 -4 -8 1 -18 5 -22 8 -3 4 1 5 10 4 8 -1 18 -5 22 -8z m164
-20 c0 -4 -4 -8 -9 -8 -6 0 -12 4 -15 8 -3 5 1 9 9 9 8 0 15 -4 15 -9z m85
-18 c3 -6 -1 -7 -9 -4 -18 7 -21 14 -7 14 6 0 13 -4 16 -10z m90 -8 c-3 -3
-11 0 -18 7 -9 10 -8 11 6 5 10 -3 15 -9 12 -12z m-455 -12 c0 -5 -2 -10 -4
-10 -3 0 -8 5 -11 10 -3 6 -1 10 4 10 6 0 11 -4 11 -10z m297 4 c-2 -3 -17 -7
-33 -10 -17 -2 -24 -1 -17 4 13 8 58 14 50 6z m-147 -17 c0 -2 -10 -12 -22
-23 l-23 -19 19 23 c18 21 26 27 26 19z m30 -7 c0 -5 -5 -10 -11 -10 -5 0 -7
5 -4 10 3 6 8 10 11 10 2 0 4 -4 4 -10z m97 -15 c0 -8 -5 -11 -10 -8 -7 4 -8
-1 -3 -13 6 -15 5 -16 -5 -7 -10 10 -9 15 1 28 15 19 17 19 17 0z m-361 -21
c1 -9 0 -13 -4 -10 -3 4 -7 14 -8 22 -1 9 0 13 4 10 3 -4 7 -14 8 -22z m58 18
c3 -5 -1 -9 -9 -9 -8 0 -12 4 -9 9 3 4 7 8 9 8 2 0 6 -4 9 -8z m56 2 c0 -8
-19 -13 -24 -6 -3 5 1 9 9 9 8 0 15 -2 15 -3z m311 -11 c-12 -8 -25 -12 -28
-9 -4 3 -1 6 6 6 7 0 10 4 7 8 -2 4 5 9 16 9 21 2 21 2 -1 -14z m-44 -18 c0
-8 -4 -12 -9 -9 -5 3 -6 10 -3 15 9 13 12 11 12 -6z m-316 -12 c13 -16 12 -17
-3 -4 -10 7 -18 15 -18 17 0 8 8 3 21 -13z m185 -5 c3 -4 -1 -5 -10 -4 -8 1
-18 5 -22 8 -3 4 1 5 10 4 8 -1 18 -5 22 -8z m84 6 c0 -8 -19 -13 -24 -6 -3 5
1 9 9 9 8 0 15 -2 15 -3z m-33 -41 c1 -24 1 -25 -7 -8 -11 26 -12 35 -2 35 4
0 8 -12 9 -27z m-159 -8 c-3 -3 -9 2 -12 12 -6 14 -5 15 5 6 7 -7 10 -15 7
-18z m103 8 c13 -16 12 -17 -3 -4 -17 13 -22 21 -14 21 2 0 10 -8 17 -17z
m-61 3 c0 -3 -4 -8 -10 -11 -5 -3 -10 -1 -10 4 0 6 5 11 10 11 6 0 10 -2 10
-4z m-304 -28 c3 -4 -1 -5 -10 -4 -8 1 -18 5 -22 8 -3 4 1 5 10 4 8 -1 18 -5
22 -8z m158 -28 c-6 -6 -10 -3 -10 10 0 13 4 16 10 10 7 -7 7 -13 0 -20z m83
3 c0 -10 -4 -10 -16 -1 -9 7 -18 13 -20 15 -2 1 5 1 16 0 11 0 20 -7 20 -14z
m98 7 c3 -5 1 -10 -4 -10 -6 0 -11 5 -11 10 0 6 2 10 4 10 3 0 8 -4 11 -10z
m-124 -27 c13 -16 12 -17 -3 -4 -17 13 -22 21 -14 21 2 0 10 -8 17 -17z m-34
-9 c-8 -8 -48 -13 -43 -6 2 4 14 8 26 9 12 1 20 0 17 -3z m-340 -19 c0 -8 -4
-12 -9 -9 -5 3 -6 10 -3 15 9 13 12 11 12 -6z m260 -2 c-4 -3 1 -16 10 -27 18
-21 18 -21 -4 -2 -25 21 -30 36 -11 36 6 0 8 -3 5 -7z m163 -3 c0 -5 -4 -10
-10 -10 -5 0 -10 5 -10 10 0 6 5 10 10 10 6 0 10 -4 10 -10z m-107 -15 c-3 -9
-8 -14 -10 -11 -3 3 -2 9 2 15 9 16 15 13 8 -4z m-133 -10 c0 -2 -9 -3 -19 -2
-11 0 -18 5 -15 9 4 6 34 0 34 -7z m51 -2 c13 -16 12 -17 -3 -4 -17 13 -22 21
-14 21 2 0 10 -8 17 -17z m144 7 c3 -5 1 -10 -4 -10 -6 0 -11 5 -11 10 0 6 2
10 4 10 3 0 8 -4 11 -10z m-399 -22 c3 -4 -1 -5 -10 -4 -8 1 -18 5 -22 8 -3 4
1 5 10 4 8 -1 18 -5 22 -8z m200 -13 c-1 -8 -5 -17 -8 -21 -5 -4 -4 16 1 34 3
9 9 -1 7 -13z m-81 -4 c3 -5 2 -12 -3 -15 -5 -3 -9 1 -9 9 0 17 3 19 12 6z
m125 -1 c0 -5 -5 -10 -11 -10 -5 0 -7 5 -4 10 3 6 8 10 11 10 2 0 4 -4 4 -10z
m-155 -20 c3 -6 -1 -7 -9 -4 -18 7 -21 14 -7 14 6 0 13 -4 16 -10z m-164 -17
c13 -16 12 -17 -3 -4 -10 7 -18 15 -18 17 0 8 8 3 21 -13z m332 2 c-3 -9 -8
-14 -10 -11 -3 3 -2 9 2 15 9 16 15 13 8 -4z m-213 -9 c-7 -7 -13 -7 -20 0 -6
6 -3 10 10 10 13 0 16 -4 10 -10z m150 10 c0 -2 -8 -10 -17 -17 -16 -13 -17
-12 -4 4 13 16 21 21 21 13z m35 -6 c3 -6 -1 -7 -9 -4 -18 7 -21 14 -7 14 6 0
13 -4 16 -10z m-188 -33 c0 -8 -6 -14 -14 -14 -9 0 -10 4 -2 14 6 7 12 13 14
13 1 0 2 -6 2 -13z m-63 -13 c3 -8 2 -12 -4 -9 -6 3 -10 10 -10 16 0 14 7 11
14 -7z m145 13 c-2 -1 -13 -9 -24 -17 -19 -14 -19 -14 -6 3 7 9 18 17 24 17 6
0 8 -1 6 -3z m-244 -26 c3 -5 2 -12 -3 -15 -5 -3 -9 1 -9 9 0 17 3 19 12 6z
m-561 -19 c3 -5 -1 -9 -9 -9 -8 0 -12 4 -9 9 3 4 7 8 9 8 2 0 6 -4 9 -8z m651
-2 c-3 -5 -12 -10 -18 -10 -7 0 -6 4 3 10 19 12 23 12 15 0z m190 -2 c4 -4 -1
-5 -12 -3 -10 1 -27 -5 -38 -14 -17 -14 -18 -14 -7 0 6 9 10 18 7 21 -3 3 6 4
19 4 14 -1 28 -5 31 -8z m-221 -36 c3 -5 -1 -9 -9 -9 -8 0 -12 4 -9 9 3 4 7 8
9 8 2 0 6 -4 9 -8z m61 -20 c-3 -3 0 -11 6 -19 17 -20 5 -16 -14 5 -15 16 -15
19 -2 19 8 0 13 -3 10 -5z m41 -8 c-1 -8 -6 -17 -12 -21 -5 -4 -6 -4 -2 1 4 5
3 14 -2 21 -7 8 -5 12 4 12 8 0 13 -6 12 -13z m-65 -21 c13 -16 12 -17 -3 -4
-17 13 -22 21 -14 21 2 0 10 -8 17 -17z m-90 -10 c13 -16 12 -17 -3 -4 -17 13
-22 21 -14 21 2 0 10 -8 17 -17z m34 -16 c1 -13 6 -21 14 -19 7 1 9 -2 6 -9
-11 -16 -29 6 -31 36 0 14 2 23 5 19 3 -3 6 -15 6 -27z m40 5 c-3 -3 -11 0
-18 7 -9 10 -8 11 6 5 10 -3 15 -9 12 -12z m-165 -48 c0 -8 -19 -13 -24 -6 -3
5 1 9 9 9 8 0 15 -2 15 -3z m4 -53 c-2 -3 -12 3 -22 13 -16 17 -16 18 5 5 12
-7 20 -15 17 -18z m-298 4 c-1 -8 -5 -17 -8 -21 -5 -4 -4 16 1 34 3 9 9 -1 7
-13z m-145 -28 c-10 -9 -11 -8 -5 6 3 10 9 15 12 12 3 -3 0 -11 -7 -18z m84
-26 c-9 -8 -36 -10 -30 -2 2 4 11 8 20 8 8 0 13 -3 10 -6z m60 -1 c3 -5 1 -10
-4 -10 -6 0 -11 5 -11 10 0 6 2 10 4 10 3 0 8 -4 11 -10z m145 -4 c-7 -7 -13
-7 -20 0 -6 6 -3 10 10 10 13 0 16 -4 10 -10z m40 -17 c0 -5 -4 -9 -8 -9 -5 0
-9 7 -9 15 0 8 4 12 9 9 4 -3 8 -9 8 -15z m-380 7 c0 -2 -7 -7 -16 -10 -8 -3
-12 -2 -9 4 6 10 25 14 25 6z m40 -6 c0 -5 -2 -10 -4 -10 -3 0 -8 5 -11 10 -3
6 -1 10 4 10 6 0 11 -4 11 -10z m293 -15 c-3 -9 -8 -14 -10 -11 -3 3 -2 9 2
15 9 16 15 13 8 -4z m-249 -3 c3 -5 -1 -9 -9 -9 -8 0 -12 4 -9 9 3 4 7 8 9 8
2 0 6 -4 9 -8z m31 -2 c3 -5 1 -10 -4 -10 -6 0 -11 5 -11 10 0 6 2 10 4 10 3
0 8 -4 11 -10z m-115 -40 c0 -5 -2 -10 -4 -10 -3 0 -8 5 -11 10 -3 6 -1 10 4
10 6 0 11 -4 11 -10z m217 -15 c0 -8 -4 -12 -9 -9 -5 3 -6 10 -3 15 9 13 12
11 12 -6z m-147 1 c0 -2 -8 -10 -17 -17 -16 -13 -17 -12 -4 4 13 16 21 21 21
13z m215 -5 c-9 -8 -36 -10 -30 -2 2 4 11 8 20 8 8 0 13 -3 10 -6z m-329 -26
c-1 -8 -5 -17 -8 -21 -5 -4 -4 16 1 34 3 9 9 -1 7 -13z m-76 -15 c0 -5 -2 -10
-4 -10 -3 0 -8 5 -11 10 -3 6 -1 10 4 10 6 0 11 -4 11 -10z m-120 -56 c0 -8
-19 -13 -24 -6 -3 5 1 9 9 9 8 0 15 -2 15 -3z m265 -4 c3 -6 -1 -7 -9 -4 -18
7 -21 14 -7 14 6 0 13 -4 16 -10z m35 0 c0 -5 -2 -10 -4 -10 -3 0 -8 5 -11 10
-3 6 -1 10 4 10 6 0 11 -4 11 -10z m-250 -36 c0 -8 -19 -13 -24 -6 -3 5 1 9 9
9 8 0 15 -2 15 -3z m30 -4 c0 -5 -5 -10 -11 -10 -5 0 -7 5 -4 10 3 6 8 10 11
10 2 0 4 -4 4 -10z m125 -19 c-9 -8 -36 -10 -30 -2 2 4 11 8 20 8 8 0 13 -3
10 -6z m35 -15 c0 -2 -7 -7 -16 -10 -8 -3 -12 -2 -9 4 6 10 25 14 25 6z m-309
-39 c-10 -9 -11 -8 -5 6 3 10 9 15 12 12 3 -3 0 -11 -7 -18z m126 -22 c0 -8
-4 -12 -9 -9 -5 3 -6 10 -3 15 9 13 12 11 12 -6z m13 -45 c-8 -5 -19 -10 -25
-10 -5 0 -3 5 5 10 8 5 20 10 25 10 6 0 3 -5 -5 -10z"/>
</g>
</svg>
