<svg width="428" height="777" viewBox="0 0 428 777" fill="none" xmlns="http://www.w3.org/2000/svg">
<path fill-rule="evenodd" clip-rule="evenodd" d="M-5.00003 448C-5.00003 443 -5.00001 438 -5.00001 438C-5.00001 438 -7.48073 174.655 -5.00003 194.5L-5.00001 130.5L-5.00001 14.5001L-1.00001 -8.49994C-1.00001 -8.49994 154 -8.49993 239 -8.49993C368 -8.49993 431 -8.49993 431 -8.49993C431 -8.49993 431 437.747 431 560C431 662.5 312.903 721.759 190.5 759C78.0214 793.222 -5.00003 767.5 -5.00003 767.5L-5.00001 588L-5.00003 560L-5.00003 509L-5.00003 448Z" fill="url(#paint0_linear_88_457)"/>
<defs>
<linearGradient id="paint0_linear_88_457" x1="506" y1="-25" x2="-65.9996" y2="785.5" gradientUnits="userSpaceOnUse">
<stop stop-color="#0075FF"/>
<stop offset="0.40625" stop-color="#62BAFF"/>
<stop offset="1" stop-color="#0075FF" stop-opacity="0.8"/>
</linearGradient>
</defs>
</svg>
